HIERARCHY
ROOT hip
{
	OFFSET	0.00  0.00  0.00 
	CHANNELS 6 Xposition Yposition Zposition Xrotation Zrotation Yrotation
	JOINT waist
	{
		OFFSET	0.000000 2.191865 -0.079388
		CHANNELS 3 Xrotation Zrotation Yrotation
		JOINT abdomen
		{
			OFFSET	0.000000 2.770984 0.119082
			CHANNELS 3 Xrotation Zrotation Yrotation
			JOINT chest
			{
				OFFSET	0.000000 2.879627 -0.290598
				CHANNELS 3 Xrotation Zrotation Yrotation
				JOINT neck
				{
					OFFSET	0.000000 12.342733 -1.613748
					CHANNELS 3 Xrotation Zrotation Yrotation
					JOINT head
					{
						OFFSET	0.000000 4.485597 1.807195
						CHANNELS 3 Xrotation Zrotation Yrotation
						End Site
						{
							OFFSET 0.000000 7.191734 2.024398
						}
					}
				}
				JOINT lCollar
				{
					OFFSET	1.858774 10.237258 -1.915852
					CHANNELS 3 Zrotation Yrotation Xrotation
					JOINT lShldr
					{
						OFFSET	6.103279 0.000102 -0.038601
						CHANNELS 3 Zrotation Yrotation Xrotation
						JOINT lForeArm
						{
							OFFSET	10.574100 -0.365985 -0.655940
							CHANNELS 3 Zrotation Yrotation Xrotation
							JOINT lHand
							{
								OFFSET	13.213392 -0.641131 0.276866
								CHANNELS 3 Zrotation Yrotation Xrotation
								JOINT lThumb1
								{
									OFFSET	1.920964 -1.225712 1.722395
									CHANNELS 3 Zrotation Yrotation Xrotation
									JOINT lThumb2
									{
										OFFSET	0.248544 -0.143036 0.768265
										CHANNELS 3 Zrotation Yrotation Xrotation
										JOINT lThumb3
										{
											OFFSET	0.628484 -0.225174 0.508305
											CHANNELS 3 Zrotation Yrotation Xrotation
											End Site
											{
												OFFSET 0.831712 -0.207978 0.609962
											}
										}
									}
								}
								JOINT lIndex1
								{
									OFFSET	5.093442 -0.710319 1.829884
									CHANNELS 3 Zrotation Yrotation Xrotation
									JOINT lIndex2
									{
										OFFSET	0.889470 -0.051998 0.127073
										CHANNELS 3 Zrotation Yrotation Xrotation
										JOINT lIndex3
										{
											OFFSET	0.889570 -0.155981 0.127073
											CHANNELS 3 Zrotation Yrotation Xrotation
											End Site
											{
												OFFSET 0.797115 -0.294470 0.076252
											}
										}
									}
								}
								JOINT lMid1
								{
									OFFSET	5.154641 -0.519844 0.864111
									CHANNELS 3 Zrotation Yrotation Xrotation
									JOINT lMid2
									{
										OFFSET	0.928821 -0.051992 0.050831
										CHANNELS 3 Zrotation Yrotation Xrotation
										JOINT lMid3
										{
											OFFSET	0.984253 -0.311865 0.050831
											CHANNELS 3 Zrotation Yrotation Xrotation
											End Site
											{
												OFFSET 0.779717 -0.606438 -0.050831
											}
										}
									}
								}
								JOINT lRing1
								{
									OFFSET	4.924408 -0.754930 -0.235503
									CHANNELS 3 Zrotation Yrotation Xrotation
									JOINT lRing2
									{
										OFFSET	0.981624 -0.036924 -0.108278
										CHANNELS 3 Zrotation Yrotation Xrotation
										JOINT lRing3
										{
											OFFSET	0.805613 -0.205247 -0.041717
											CHANNELS 3 Zrotation Yrotation Xrotation
											End Site
											{
												OFFSET 0.667431 -0.470481 -0.035991
											}
										}
									}
								}
								JOINT lPinky1
								{
									OFFSET	4.535460 -0.816635 -1.006206
									CHANNELS 3 Zrotation Yrotation Xrotation
									JOINT lPinky2
									{
										OFFSET	0.690596 -0.064334 -0.168800
										CHANNELS 3 Zrotation Yrotation Xrotation
										JOINT lPinky3
										{
											OFFSET	0.598039 -0.111176 -0.071973
											CHANNELS 3 Zrotation Yrotation Xrotation
											End Site
											{
												OFFSET 0.422025 -0.290925 -0.035981
											}
										}
									}
								}
							}
						}
					}
				}
				JOINT rCollar
				{
					OFFSET	-1.858774 10.237258 -1.915852
					CHANNELS 3 Zrotation Yrotation Xrotation
					JOINT rShldr
					{
						OFFSET	-6.103279 0.000102 -0.038601
						CHANNELS 3 Zrotation Yrotation Xrotation
						JOINT rForeArm
						{
							OFFSET	-10.574100 -0.365985 -0.655940
							CHANNELS 3 Zrotation Yrotation Xrotation
							JOINT rHand
							{
								OFFSET	-13.213392 -0.641131 0.276866
								CHANNELS 3 Zrotation Yrotation Xrotation
								JOINT rIndex1
								{
									OFFSET	-5.093442 -0.710319 1.829884
									CHANNELS 3 Zrotation Yrotation Xrotation
									JOINT rIndex2
									{
										OFFSET	-0.889470 -0.051998 0.127073
										CHANNELS 3 Zrotation Yrotation Xrotation
										JOINT rIndex3
										{
											OFFSET	-0.889570 -0.155981 0.127073
											CHANNELS 3 Zrotation Yrotation Xrotation
											End Site
											{
												OFFSET -0.797115 -0.294470 0.076252
											}
										}
									}
								}
								JOINT rThumb1
								{
									OFFSET	-1.920964 -1.225712 1.722395
									CHANNELS 3 Zrotation Yrotation Xrotation
									JOINT rThumb2
									{
										OFFSET	-0.248544 -0.143036 0.768265
										CHANNELS 3 Zrotation Yrotation Xrotation
										JOINT rThumb3
										{
											OFFSET	-0.628484 -0.225174 0.508305
											CHANNELS 3 Zrotation Yrotation Xrotation
											End Site
											{
												OFFSET -0.831712 -0.207978 0.609962
											}
										}
									}
								}
								JOINT rMid1
								{
									OFFSET	-5.154641 -0.519844 0.864111
									CHANNELS 3 Zrotation Yrotation Xrotation
									JOINT rMid2
									{
										OFFSET	-0.928821 -0.051992 0.050831
										CHANNELS 3 Zrotation Yrotation Xrotation
										JOINT rMid3
										{
											OFFSET	-0.984253 -0.311865 0.050831
											CHANNELS 3 Zrotation Yrotation Xrotation
											End Site
											{
												OFFSET -0.779717 -0.606438 -0.050831
											}
										}
									}
								}
								JOINT rRing1
								{
									OFFSET	-4.924408 -0.754930 -0.235503
									CHANNELS 3 Zrotation Yrotation Xrotation
									JOINT rRing2
									{
										OFFSET	-0.981624 -0.036924 -0.108278
										CHANNELS 3 Zrotation Yrotation Xrotation
										JOINT rRing3
										{
											OFFSET	-0.805613 -0.205247 -0.041717
											CHANNELS 3 Zrotation Yrotation Xrotation
											End Site
											{
												OFFSET -0.667431 -0.470481 -0.035991
											}
										}
									}
								}
								JOINT rPinky1
								{
									OFFSET	-4.535460 -0.816635 -1.006206
									CHANNELS 3 Zrotation Yrotation Xrotation
									JOINT rPinky2
									{
										OFFSET	-0.690596 -0.064334 -0.168800
										CHANNELS 3 Zrotation Yrotation Xrotation
										JOINT rPinky3
										{
											OFFSET	-0.598039 -0.111176 -0.071973
											CHANNELS 3 Zrotation Yrotation Xrotation
											End Site
											{
												OFFSET -0.422025 -0.290925 -0.035981
											}
										}
									}
								}
							}
						}
					}
				}
			}
		}
	}
	JOINT lThigh
	{
		OFFSET	5.761895 -0.730553 0.000101
		CHANNELS 3 Xrotation Zrotation Yrotation
		JOINT lShin
		{
			OFFSET	-1.171020 -18.459274 1.627449
			CHANNELS 3 Xrotation Zrotation Yrotation
			JOINT lFoot
			{
				OFFSET	-0.883715 -16.872776 -3.357785
				CHANNELS 3 Xrotation Zrotation Yrotation
				JOINT lToe
				{
					OFFSET	1.287613 -2.778491 2.836049
					CHANNELS 3 Xrotation Yrotation Zrotation
					End Site
					{
						OFFSET 1.362641 -0.436631 3.828194
					}
				}
			}
		}
	}
	JOINT rThigh
	{
		OFFSET	-5.761895 -0.730553 0.000101
		CHANNELS 3 Xrotation Zrotation Yrotation
		JOINT rShin
		{
			OFFSET	1.171020 -18.459274 1.627449
			CHANNELS 3 Xrotation Zrotation Yrotation
			JOINT rFoot
			{
				OFFSET	0.883715 -16.872776 -3.357785
				CHANNELS 3 Xrotation Zrotation Yrotation
				JOINT rToe
				{
					OFFSET	-1.287613 -2.778491 2.836049
					CHANNELS 3 Xrotation Yrotation Zrotation
					End Site
					{
						OFFSET -1.362641 -0.436631 3.828194
					}
				}
			}
		}
	}
}
MOTION
Frames:     7
Frame Time: 0.033333
-0.013274 37.302753 -0.646068 1.376963 -1.311966 1.255574 -0.009766 0.000000 0.000000 0.933446 0.921612 6.050677 3.216181 -7.393929 7.073503 1.384124 0.876262 -0.542711 -18.399153 0.000000 0.000000 3.469694 1.214436 -9.723684 -71.935875 -0.315023 39.787369 -6.928043 18.786802 8.578930 12.484976 -24.331869 40.563431 -18.467085 11.866148 3.029279 12.448865 4.140066 5.193622 25.998997 9.369293 29.722498 -4.647461 6.815200 -14.977687 0.006864 3.147345 2.349544 1.341372 2.952914 1.365262 -9.717045 -1.769058 -6.618793 8.319654 -1.841496 -14.223416 -5.566447 1.990521 -1.851697 -47.786743 -14.223042 -7.366983 -43.684422 0.854969 -5.748193 -39.589340 1.821565 -2.032259 -26.817776 -11.641875 -12.959000 -40.680405 -1.683441 -4.672142 -46.736443 -1.482368 -4.838564 -0.745271 -12.911105 3.982674 74.189842 47.205776 28.967924 15.657294 2.511055 10.862210 8.368606 -2.161273 33.940460 9.678567 -6.396327 14.304591 4.340456 0.021981 0.624052 2.035630 2.220714 -0.988950 24.480560 -26.553444 -5.085771 -0.699186 -3.474787 0.750744 -0.236807 -0.289113 -0.119386 5.001613 4.431896 0.181979 4.310706 -3.318547 1.657532 -6.985992 -0.939946 2.491280 30.251804 23.520344 -6.115981 76.956566 -1.368370 -5.884264 63.454067 33.950558 3.585526 15.459989 16.594481 -7.563146 67.388199 4.382622 -1.190984 64.505180 27.804502 -4.471035 -30.255056 -4.225542 4.229976 26.694168 -2.767924 -1.142876 2.288574 3.755001 10.538797 -6.990786 -0.296104 2.448807 14.164212 8.126461 1.681114 13.993017 0.678838 0.846395 -10.499728 -2.226231 -11.096888 -15.063313 0.981247 -5.248837 
-0.013274 36.624226 -0.646068 1.962916 -2.027676 1.945763 -0.009766 0.000000 0.000000 0.939028 -0.589124 5.413157 4.448025 -6.527630 6.796737 2.487642 0.876262 -0.542711 -16.494852 0.000000 0.000000 3.274629 1.028971 -9.773898 -71.949219 -1.337600 40.035030 -6.107826 20.251415 15.692946 12.988642 -24.925926 40.208004 -11.345314 9.327705 7.166265 8.882480 6.216591 0.874073 6.464220 23.572075 3.705773 -4.647461 6.815200 -14.977687 0.006864 3.147345 2.349544 1.341372 2.952914 1.365262 -9.717045 -1.769058 -6.618793 8.319654 -1.841496 -14.223416 -5.566447 1.990521 -1.851697 -47.786743 -14.223042 -7.366983 -43.684422 0.854969 -5.748193 -39.589340 1.821565 -2.032259 -26.817776 -11.641875 -12.959000 -40.680405 -1.683441 -4.672142 -46.736443 -1.482368 -4.838564 -0.745250 -13.018527 3.982622 74.197861 47.852100 28.816139 15.538136 4.012296 16.697309 7.123516 0.413709 38.401669 9.678567 -6.396327 14.304591 4.340456 0.021981 0.624052 2.035630 2.220714 -0.988950 -4.168463 -18.038963 14.215630 -0.563656 -3.519369 0.636199 -0.236807 -0.289113 -0.119386 5.001613 4.431896 0.181979 4.310706 -3.318547 1.657532 -6.985992 -0.939946 2.491280 30.251804 23.520344 -6.115981 76.956566 -1.368370 -5.884264 63.454067 33.950558 3.585526 15.459989 16.594481 -7.563146 67.388199 4.382622 -1.190984 64.505180 27.804502 -4.471035 -31.969376 -3.559347 3.979218 34.636509 -2.854441 -1.868767 -4.485913 5.829557 9.066181 -5.786728 -0.225385 2.027786 16.210159 9.333790 3.295136 15.505281 0.708756 0.934704 -11.563853 -1.902925 -12.645984 -12.251210 0.691461 -4.290733 
-0.013274 36.111404 -0.646068 2.519574 -2.624097 2.520925 -0.009766 0.000000 0.000000 0.955162 -2.045604 4.536962 5.024182 -5.325340 6.150418 3.425143 0.876262 -0.542711 -14.512435 0.000000 0.000000 3.381899 1.136346 -9.743834 -72.326363 -2.450422 39.910065 -5.758165 20.612770 19.319704 12.697737 -24.588268 40.413895 -6.948904 7.484937 9.696003 6.420863 7.488335 -2.114614 -12.954932 29.542149 -21.971453 -4.647461 6.815200 -14.977687 0.006864 3.147345 2.349544 1.341372 2.952914 1.365262 -9.717045 -1.769058 -6.618793 8.319654 -1.841496 -14.223416 -5.566447 1.990521 -1.851697 -47.786743 -14.223042 -7.366983 -43.684422 0.854969 -5.748193 -39.589340 1.821565 -2.032259 -26.817776 -11.641875 -12.959000 -40.680405 -1.683441 -4.672142 -46.736443 -1.482368 -4.838564 -0.745263 -12.950167 3.982655 74.216042 47.617199 28.899044 15.090522 4.698852 22.383024 6.221962 2.003668 41.038567 9.678567 -6.396327 14.304591 4.340456 0.021981 0.624052 2.035630 2.220714 -0.988950 -22.185236 -7.516960 26.282452 -0.464903 -3.551368 0.554201 -0.236807 -0.289113 -0.119386 5.001613 4.431896 0.181979 4.310706 -3.318547 1.657532 -6.985992 -0.939946 2.491280 30.251804 23.520344 -6.115981 76.956566 -1.368370 -5.884264 63.454067 33.950558 3.585526 15.459989 16.594481 -7.563146 67.388199 4.382622 -1.190984 64.505180 27.804502 -4.471035 -32.379410 -3.123481 3.496825 40.615757 -2.797952 -2.416880 -10.679397 8.370639 7.224545 -4.186713 -0.145162 1.466474 12.427788 10.214914 2.370821 22.536747 0.675334 1.385898 -10.247120 -1.015206 -13.028565 -23.085930 2.065598 -7.900380 
-0.013274 35.889320 -0.646068 2.998104 -3.061469 2.942714 -0.009766 0.000000 0.000000 0.976874 -3.110517 3.424149 4.760505 -3.856394 5.049871 3.981782 0.876262 -0.542711 -12.783919 0.000000 0.000000 3.752572 1.497517 -9.653299 -73.009598 -3.632310 39.451130 -5.999955 19.938026 18.354330 11.714512 -23.408876 41.117378 -5.613049 6.905806 10.507495 5.449926 7.969014 -3.324966 -27.426796 29.639315 -41.784184 -4.647461 6.815200 -14.977687 0.006864 3.147345 2.349544 1.341372 2.952914 1.365262 -9.717045 -1.769058 -6.618793 8.319654 -1.841496 -14.223416 -5.566447 1.990521 -1.851697 -47.786743 -14.223042 -7.366983 -43.684422 0.854969 -5.748193 -39.589340 1.821565 -2.032259 -26.817776 -11.641875 -12.959000 -40.680405 -1.683441 -4.672142 -46.736443 -1.482368 -4.838564 -0.745302 -12.745089 3.982753 74.260567 46.589413 29.200191 14.337159 4.668414 27.697945 5.656461 2.672729 41.951706 9.678567 -6.396327 14.304591 4.340456 0.021981 0.624052 2.035630 2.220714 -0.988950 -31.599951 0.364482 32.816818 -0.416235 -3.569147 0.506343 -0.236807 -0.289113 -0.119386 5.001613 4.431896 0.181979 4.310706 -3.318547 1.657532 -6.985992 -0.939946 2.491280 30.251804 23.520344 -6.115981 76.956566 -1.368370 -5.884264 63.454067 33.950558 3.585526 15.459989 16.594481 -7.563146 67.388199 4.382622 -1.190984 64.505180 27.804502 -4.471035 -31.173111 -2.891717 2.765700 43.736286 -2.688537 -2.677566 -15.552670 10.382251 5.388446 -0.009016 -0.009943 -0.006510 7.302016 11.219232 0.840994 31.234600 0.496676 1.915560 -11.748350 -0.130290 -13.665447 -14.294345 0.897291 -4.988147 
-0.013274 36.042923 -0.646068 3.330144 -3.300035 3.172781 -0.009766 0.000000 0.000000 0.994391 -3.586851 2.192771 3.793641 -2.220876 3.600596 3.981782 0.876262 -0.542711 -11.651106 0.000000 0.000000 4.347684 2.063646 -9.512358 -73.970543 -4.872112 38.716473 -6.636231 18.367550 13.960566 10.153316 -21.533007 42.231339 -6.499921 7.340548 10.092365 5.636762 7.909922 -3.153044 -37.571583 27.143055 -56.220398 -4.647461 6.815200 -14.977687 0.006864 3.147345 2.349544 1.341372 2.952914 1.365262 -9.717045 -1.769058 -6.618793 8.319654 -1.841496 -14.223416 -5.566447 1.990521 -1.851697 -47.786743 -14.223042 -7.366983 -43.684422 0.854969 -5.748193 -39.589340 1.821565 -2.032259 -26.817776 -11.641875 -12.959000 -40.680405 -1.683441 -4.672142 -46.736443 -1.482368 -4.838564 -0.745367 -12.403293 3.982917 74.305305 44.905376 29.666836 13.311195 4.091111 32.201172 5.347679 2.570582 41.429028 9.678567 -6.396327 14.304591 4.340456 0.021981 0.624052 2.035630 2.220714 -0.988950 -36.039242 4.959582 36.214691 -0.404427 -3.574493 0.491104 -0.236807 -0.289113 -0.119386 5.001613 4.431896 0.181979 4.310706 -3.318547 1.657532 -6.985992 -0.939946 2.491280 30.251804 23.520344 -6.115981 76.956566 -1.368370 -5.884264 63.454067 33.950558 3.585526 15.459989 16.594481 -7.563146 67.388199 4.382622 -1.190984 64.505180 27.804502 -4.471035 -28.238005 -2.774181 1.814099 43.735634 -2.636829 -2.667998 -18.833153 10.133599 3.938373 -0.009016 -0.009943 -0.006510 -2.649476 11.660338 -2.852775 44.479160 -0.512565 2.541199 -5.500724 2.016999 -14.775346 -13.735700 0.838519 -4.798083 
-0.013274 36.496765 -0.646068 3.544991 -3.379557 3.249471 -0.009766 0.000000 0.000000 1.003594 -3.604172 0.897635 2.367165 -0.520887 1.926470 3.307954 0.876262 -0.542711 -11.465561 0.000000 0.000000 5.108704 2.815182 -9.321393 -75.141647 -6.158003 37.755795 -7.457077 16.074846 7.283210 8.139405 -19.084694 43.661217 -8.904634 8.430485 8.818641 6.632037 7.466082 -2.011094 -45.076202 23.440926 -66.943077 -4.647461 6.815200 -14.977687 0.006864 3.147345 2.349544 1.341372 2.952914 1.365262 -9.717045 -1.769058 -6.618793 8.319654 -1.841496 -14.223416 -5.566447 1.990521 -1.851697 -47.786743 -14.223042 -7.366983 -43.684422 0.854969 -5.748193 -39.589340 1.821565 -2.032259 -26.817776 -11.641875 -12.959000 -40.680405 -1.683441 -4.672142 -46.736443 -1.482368 -4.838564 -0.745448 -11.963838 3.983130 74.353645 42.692429 30.276768 12.023426 3.112615 35.493446 5.273361 1.824312 39.710823 9.678567 -6.396327 14.304591 4.340456 0.021981 0.624052 2.035630 2.220714 -0.988950 -37.263321 6.481148 37.529602 -0.417680 -3.572770 0.492651 -0.236807 -0.289113 -0.119386 5.001613 4.431896 0.181979 4.310706 -3.318547 1.657532 -6.985992 -0.939946 2.491280 30.251804 23.520344 -6.115981 76.956566 -1.368370 -5.884264 63.454067 33.950558 3.585526 15.459989 16.594481 -7.563146 67.388199 4.382622 -1.190984 64.505180 27.804502 -4.471035 -23.968594 -2.695692 0.727255 41.188881 -2.644819 -2.457815 -20.759634 9.805081 2.801228 0.092243 -0.008000 -0.042305 -9.271811 11.027670 -5.289579 52.938202 -1.612035 2.682049 1.337370 3.814989 -14.953310 -13.149384 0.778852 -4.598100 
-0.013274 37.135319 -0.646068 3.652411 -3.329856 3.201540 -0.009766 0.000000 0.000000 1.004950 -3.389880 -0.413410 0.734543 1.158566 0.172807 2.175142 0.876262 -0.542711 -12.422593 0.000000 0.000000 6.016273 3.693521 -9.100121 -76.475250 -7.458995 36.618019 -8.274399 13.201879 -0.379047 5.785883 -16.188360 45.318005 -12.165519 9.792724 7.012975 8.092849 6.760430 -0.303980 -51.225609 18.914480 -75.333275 -4.647461 6.815200 -14.977687 0.006864 3.147345 2.349544 1.341372 2.952914 1.365262 -9.717045 -1.769058 -6.618793 8.319654 -1.841496 -14.223416 -5.566447 1.990521 -1.851697 -47.786743 -14.223042 -7.366983 -43.684422 0.854969 -5.748193 -39.589340 1.821565 -2.032259 -26.817776 -11.641875 -12.959000 -40.680405 -1.683441 -4.672142 -46.736443 -1.482368 -4.838564 -0.745542 -11.446261 3.983380 74.400696 40.048439 30.993385 10.507677 1.855714 37.315769 5.397456 0.570505 37.055897 9.678567 -6.396327 14.304591 4.340456 0.021981 0.624052 2.035630 2.220714 -0.988950 -36.092308 5.329251 37.242355 -0.450089 -3.566653 0.504272 -0.236807 -0.289113 -0.119386 5.001613 4.431896 0.181979 4.310706 -3.318547 1.657532 -6.985992 -0.939946 2.491280 30.251804 23.520344 -6.115981 76.956566 -1.368370 -5.884264 63.454067 33.950558 3.585526 15.459989 16.594481 -7.563146 67.388199 4.382622 -1.190984 64.505180 27.804502 -4.471035 -18.642128 -2.651046 -0.387378 36.370384 -2.654589 -2.017061 -21.360861 9.296902 2.170641 0.442055 -0.001779 -0.165983 -16.951942 8.057633 -8.267338 58.133553 -2.517638 2.587295 3.208965 2.916839 -11.584044 -12.700352 0.734554 -4.444587 
